<svg width="32" height="32" viewBox="0 0 32 32" fill="none" xmlns="http://www.w3.org/2000/svg">
  <!-- Professional P and K letters for Prasanna Kulal -->
  <rect width="32" height="32" rx="6" fill="url(#gradient)"/>
  
  <!-- Letter P -->
  <path d="M6 8h6c2.2 0 4 1.8 4 4s-1.8 4-4 4H8v4H6V8z M8 10v4h4c1.1 0 2-0.9 2-2s-0.9-2-2-2H8z" fill="white"/>
  
  <!-- Letter K -->
  <path d="M18 8h2v6l4-6h2.5l-4 6 4.5 6H24l-3.5-5-0.5 0.5V20h-2V8z" fill="white"/>
  
  <!-- Gradient definition -->
  <defs>
    <linearGradient id="gradient" x1="0%" y1="0%" x2="100%" y2="100%">
      <stop offset="0%" style="stop-color:#08e0c7;stop-opacity:1" />
      <stop offset="100%" style="stop-color:#0066cc;stop-opacity:1" />
    </linearGradient>
  </defs>
</svg>
